<?xml version="1.0" encoding="UTF-8"?>
<svg id="Layer_1" data-name="Layer 1" xmlns="http://www.w3.org/2000/svg" viewBox="0 0 300 441">
  <g id="Logo">
    <g id="Yipper">
      <path className="fill-white" d="M264.29,7.14c15.79,0,28.57,12.79,28.57,28.57v369.56c0,15.79-12.79,28.57-28.57,28.57H35.71c-15.79,0-28.57-12.79-28.57-28.57V35.71c0-15.79,12.79-28.57,28.57-28.57h228.57M264.29,0H35.71C16.01,0,0,16.01,0,35.71v369.56c0,19.7,16.01,35.71,35.71,35.71h228.57c19.7,0,35.71-16.01,35.71-35.71V35.71c0-19.7-16.01-35.71-35.71-35.71h0Z"/>
      <g>
        <path className="fill-white" d="M70.31,364.66l-6.34,10.64c-.27.47-.94.46-1.23,0l-6.29-10.64c-.13-.21-.36-.34-.61-.34h-11.3c-.57,0-.9.63-.6,1.1l13.04,20.13c.07.11.11.24.11.39v11.49c0,.4.31.71.71.71h10.79c.4,0,.71-.31.71-.71v-11.53c0-.14.04-.27.11-.39l13.04-20.09c.31-.47-.03-1.1-.6-1.1h-10.97c-.26,0-.49.13-.61.34h.03Z"/>
        <path className="fill-white" d="M87.17,365.03v32.39c0,.4.31.71.71.71h10.79c.4,0,.71-.31.71-.71v-32.39c0-.4-.31-.71-.71-.71h-10.79c-.4,0-.71.31-.71.71Z"/>
        <path className="fill-white" d="M135.69,367.3c-2.64-1.99-6.64-2.99-12.01-2.99h-16.37c-.4,0-.71.31-.71.71v32.39c0,.4.31.71.71.71h10.31c.4,0,.71-.31.71-.71v-8.09c0-.4.31-.71.71-.71h4.07c5.54,0,9.69-.99,12.43-2.97,2.73-1.97,4.09-5.04,4.09-9.2s-1.31-7.16-3.94-9.14h0ZM126.59,379.04c-.8.47-2.07.71-3.81.71h-3.73c-.4,0-.71-.31-.71-.71v-5.16c0-.4.31-.71.71-.71h3.83c1.7,0,2.96.24,3.74.74.79.49,1.19,1.33,1.19,2.53s-.4,2.13-1.21,2.6h0Z"/>
        <path className="fill-white" d="M174.03,367.3c-2.63-1.99-6.64-2.99-12-2.99h-16.39c-.4,0-.71.31-.71.71v32.39c0,.4.31.71.71.71h10.31c.4,0,.71-.31.71-.71v-8.09c0-.4.31-.71.71-.71h4.07c5.56,0,9.7-.99,12.43-2.97,2.73-1.97,4.1-5.04,4.1-9.2s-1.31-7.16-3.96-9.14h0ZM164.94,379.04c-.81.47-2.09.71-3.81.71h-3.74c-.4,0-.71-.31-.71-.71v-5.16c0-.4.31-.71.71-.71h3.84c1.7,0,2.94.24,3.73.74.8.49,1.19,1.33,1.19,2.53s-.4,2.13-1.2,2.6h0Z"/>
        <path className="fill-white" d="M213.87,372.27v-7.24c0-.4-.31-.71-.71-.71h-29.16c-.4,0-.71.31-.71.71v32.39c0,.4.31.71.71.71h29.16c.4,0,.71-.31.71-.71v-7.24c0-.4-.31-.71-.71-.71h-17.23c-.4,0-.71-.31-.71-.71v-2.64c0-.4.31-.71.71-.71h16.29c.4,0,.71-.31.71-.71v-7.19c0-.4-.31-.71-.71-.71h-16.29c-.4,0-.71-.31-.71-.71v-2.36c0-.4.31-.71.71-.71h17.23c.4,0,.71-.31.71-.71h0Z"/>
        <path className="fill-white" d="M249.1,386.13c-.23-.34-.1-.8.27-1.01,1.53-.87,2.71-1.96,3.56-3.29.96-1.51,1.44-3.49,1.44-5.93,0-3.81-1.33-6.7-3.96-8.66-2.64-1.96-6.64-2.94-12-2.94h-17.23c-.4,0-.71.31-.71.71v32.39c0,.4.31.71.71.71h9.93c.4,0,.71-.31.71-.71v-8.9c0-.4.31-.71.71-.71h4.71c.24,0,.49.13.61.34l5.87,9.64c.13.21.36.34.61.34h11.27c.57,0,.9-.63.6-1.1l-7.1-10.9h-.03ZM241.6,378.61c-.81.47-2.11.71-3.91.71h-5.16c-.4,0-.71-.31-.71-.71v-5.1c0-.4.31-.71.71-.71h5.26c1.76,0,3.04.23,3.83.7.79.49,1.19,1.31,1.19,2.51s-.4,2.13-1.2,2.6Z"/>
      </g>
    </g>
    <g id="Y">
      <path className="fill-white" d="M257.14,164.29v42.86c0,7.89-6.4,14.29-14.29,14.29h-42.86c-7.89,0-14.29,6.4-14.29,14.29v78.57c0,7.89-6.4,14.29-14.29,14.29h-42.86c-7.89,0-14.29-6.4-14.29-14.29v-78.57c0-7.89-6.4-14.29-14.29-14.29h-42.86c-7.89,0-14.29-6.4-14.29-14.29V57.14c0-7.89,6.4-14.29,14.29-14.29h42.86c7.89,0,14.29,6.4,14.29,14.29v78.57c0,7.89,6.4,14.29,14.29,14.29h114.29c7.89,0,14.29,6.4,14.29,14.29Z"/>
      <rect className="fill-white" x="185.71" y="42.86" width="71.43" height="71.43" rx="10" ry="10"/>
    </g>
  </g>
</svg>