<?xml version="1.0" encoding="UTF-8"?>
<svg id="Yipper_Logo_Fill" data-name="Yipper Logo Fill" xmlns="http://www.w3.org/2000/svg" viewBox="0 0 300 441">
  <g>
    <g>
      <path className="fill-white" d="M241.61,373.5c-.79-.47-2.07-.7-3.83-.7h-5.26c-.4,0-.71.31-.71.71v5.1c0,.4.31.71.71.71h5.16c1.8,0,3.1-.24,3.91-.71.8-.47,1.2-1.34,1.2-2.6s-.4-2.03-1.19-2.51ZM241.61,373.5c-.79-.47-2.07-.7-3.83-.7h-5.26c-.4,0-.71.31-.71.71v5.1c0,.4.31.71.71.71h5.16c1.8,0,3.1-.24,3.91-.71.8-.47,1.2-1.34,1.2-2.6s-.4-2.03-1.19-2.51ZM164.96,373.91c-.79-.5-2.03-.74-3.73-.74h-3.84c-.4,0-.71.31-.71.71v5.16c0,.4.31.71.71.71h3.74c1.73,0,3-.24,3.81-.71.8-.47,1.2-1.34,1.2-2.6s-.39-2.04-1.19-2.53h0ZM241.61,373.5c-.79-.47-2.07-.7-3.83-.7h-5.26c-.4,0-.71.31-.71.71v5.1c0,.4.31.71.71.71h5.16c1.8,0,3.1-.24,3.91-.71.8-.47,1.2-1.34,1.2-2.6s-.4-2.03-1.19-2.51ZM241.61,373.5c-.79-.47-2.07-.7-3.83-.7h-5.26c-.4,0-.71.31-.71.71v5.1c0,.4.31.71.71.71h5.16c1.8,0,3.1-.24,3.91-.71.8-.47,1.2-1.34,1.2-2.6s-.4-2.03-1.19-2.51ZM164.96,373.91c-.79-.5-2.03-.74-3.73-.74h-3.84c-.4,0-.71.31-.71.71v5.16c0,.4.31.71.71.71h3.74c1.73,0,3-.24,3.81-.71.8-.47,1.2-1.34,1.2-2.6s-.39-2.04-1.19-2.53h0ZM126.61,373.91c-.79-.5-2.04-.74-3.74-.74h-3.83c-.4,0-.71.31-.71.71v5.16c0,.4.31.71.71.71h3.73c1.74,0,3.01-.24,3.81-.71.81-.47,1.21-1.34,1.21-2.6s-.4-2.04-1.19-2.53h0ZM126.61,373.91c-.79-.5-2.04-.74-3.74-.74h-3.83c-.4,0-.71.31-.71.71v5.16c0,.4.31.71.71.71h3.73c1.74,0,3.01-.24,3.81-.71.81-.47,1.21-1.34,1.21-2.6s-.4-2.04-1.19-2.53h0ZM164.96,373.91c-.79-.5-2.03-.74-3.73-.74h-3.84c-.4,0-.71.31-.71.71v5.16c0,.4.31.71.71.71h3.74c1.73,0,3-.24,3.81-.71.8-.47,1.2-1.34,1.2-2.6s-.39-2.04-1.19-2.53h0ZM241.61,373.5c-.79-.47-2.07-.7-3.83-.7h-5.26c-.4,0-.71.31-.71.71v5.1c0,.4.31.71.71.71h5.16c1.8,0,3.1-.24,3.91-.71.8-.47,1.2-1.34,1.2-2.6s-.4-2.03-1.19-2.51ZM241.61,373.5c-.79-.47-2.07-.7-3.83-.7h-5.26c-.4,0-.71.31-.71.71v5.1c0,.4.31.71.71.71h5.16c1.8,0,3.1-.24,3.91-.71.8-.47,1.2-1.34,1.2-2.6s-.4-2.03-1.19-2.51ZM164.96,373.91c-.79-.5-2.03-.74-3.73-.74h-3.84c-.4,0-.71.31-.71.71v5.16c0,.4.31.71.71.71h3.74c1.73,0,3-.24,3.81-.71.8-.47,1.2-1.34,1.2-2.6s-.39-2.04-1.19-2.53h0ZM126.61,373.91c-.79-.5-2.04-.74-3.74-.74h-3.83c-.4,0-.71.31-.71.71v5.16c0,.4.31.71.71.71h3.73c1.74,0,3.01-.24,3.81-.71.81-.47,1.21-1.34,1.21-2.6s-.4-2.04-1.19-2.53h0ZM264.29,0H35.71C16.01,0,0,16.01,0,35.71v369.56c0,19.69,16.01,35.71,35.71,35.71h228.57c19.7,0,35.71-16.03,35.71-35.71V35.71c0-19.7-16.01-35.71-35.71-35.71ZM128.57,150h114.29c7.89,0,14.29,6.4,14.29,14.29v42.86c0,7.89-6.4,14.29-14.29,14.29h-42.86c-7.89,0-14.29,6.4-14.29,14.29v78.57c0,7.89-6.4,14.29-14.29,14.29h-42.86c-7.89,0-14.29-6.4-14.29-14.29v-78.57c0-7.89-6.4-14.29-14.29-14.29h-42.86c-7.89,0-14.29-6.4-14.29-14.29V57.14c0-7.89,6.4-14.29,14.29-14.29h42.86c7.89,0,14.29,6.4,14.29,14.29v78.57c0,7.89,6.4,14.29,14.29,14.29ZM249.1,386.13l7.1,10.9c.3.47-.03,1.1-.6,1.1h-11.27c-.24,0-.49-.13-.61-.34l-5.86-9.64c-.13-.21-.37-.34-.61-.34h-4.71c-.4,0-.71.31-.71.71v8.9c0,.4-.31.71-.71.71h-9.93c-.4,0-.71-.31-.71-.71v-32.39c0-.4.31-.71.71-.71h17.23c5.36,0,9.36.99,12,2.94,2.63,1.96,3.96,4.84,3.96,8.66,0,2.44-.49,4.41-1.44,5.93-.84,1.33-2.03,2.41-3.56,3.29-.36.2-.49.66-.26,1h0ZM195.93,376.77h16.29c.4,0,.71.31.71.71v7.19c0,.4-.31.71-.71.71h-16.29c-.4,0-.71.31-.71.71v2.64c0,.4.31.71.71.71h17.23c.4,0,.71.31.71.71v7.24c0,.4-.31.71-.71.71h-29.16c-.4,0-.71-.31-.71-.71v-32.39c0-.4.31-.71.71-.71h29.16c.4,0,.71.31.71.71v7.24c0,.4-.31.71-.71.71h-17.23c-.4,0-.71.31-.71.71v2.36c0,.4.31.71.71.71h0ZM177.99,376.44c0,4.16-1.37,7.23-4.1,9.2-2.73,1.99-6.87,2.97-12.43,2.97h-4.07c-.4,0-.71.31-.71.71v8.09c0,.4-.31.71-.71.71h-10.31c-.4,0-.71-.31-.71-.71v-32.39c0-.4.31-.71.71-.71h16.39c5.36,0,9.37,1,12,2.99,2.64,1.99,3.96,5.04,3.96,9.14h0ZM139.63,376.44c0,4.16-1.36,7.23-4.09,9.2-2.74,1.99-6.89,2.97-12.43,2.97h-4.07c-.4,0-.71.31-.71.71v8.09c0,.4-.31.71-.71.71h-10.31c-.4,0-.71-.31-.71-.71v-32.39c0-.4.31-.71.71-.71h16.37c5.37,0,9.37,1,12.01,2.99,2.63,1.99,3.94,5.04,3.94,9.14h0ZM99.39,365.03v32.39c0,.4-.31.71-.71.71h-10.79c-.4,0-.71-.31-.71-.71v-32.39c0-.4.31-.71.71-.71h10.79c.4,0,.71.31.71.71ZM57,385.54l-13.04-20.13c-.31-.47.03-1.1.6-1.1h11.3c.24,0,.47.13.6.34l6.29,10.66c.29.46.96.46,1.23,0l6.34-10.66c.11-.21.36-.34.6-.34h10.97c.57,0,.91.63.6,1.1l-13.04,20.09c-.07.11-.11.24-.11.39v11.53c0,.4-.31.71-.71.71h-10.79c-.4,0-.71-.31-.71-.71v-11.49c0-.14-.04-.27-.11-.39h0ZM257.14,100c0,7.89-6.4,14.29-14.29,14.29h-42.86c-7.89,0-14.29-6.4-14.29-14.29v-42.86c0-7.89,6.4-14.29,14.29-14.29h42.86c7.89,0,14.29,6.4,14.29,14.29v42.86ZM126.61,373.91c-.79-.5-2.04-.74-3.74-.74h-3.83c-.4,0-.71.31-.71.71v5.16c0,.4.31.71.71.71h3.73c1.74,0,3.01-.24,3.81-.71.81-.47,1.21-1.34,1.21-2.6s-.4-2.04-1.19-2.53h0ZM164.96,373.91c-.79-.5-2.03-.74-3.73-.74h-3.84c-.4,0-.71.31-.71.71v5.16c0,.4.31.71.71.71h3.74c1.73,0,3-.24,3.81-.71.8-.47,1.2-1.34,1.2-2.6s-.39-2.04-1.19-2.53h0ZM241.61,373.5c-.79-.47-2.07-.7-3.83-.7h-5.26c-.4,0-.71.31-.71.71v5.1c0,.4.31.71.71.71h5.16c1.8,0,3.1-.24,3.91-.71.8-.47,1.2-1.34,1.2-2.6s-.4-2.03-1.19-2.51ZM241.61,373.5c-.79-.47-2.07-.7-3.83-.7h-5.26c-.4,0-.71.31-.71.71v5.1c0,.4.31.71.71.71h5.16c1.8,0,3.1-.24,3.91-.71.8-.47,1.2-1.34,1.2-2.6s-.4-2.03-1.19-2.51ZM164.96,373.91c-.79-.5-2.03-.74-3.73-.74h-3.84c-.4,0-.71.31-.71.71v5.16c0,.4.31.71.71.71h3.74c1.73,0,3-.24,3.81-.71.8-.47,1.2-1.34,1.2-2.6s-.39-2.04-1.19-2.53h0ZM126.61,373.91c-.79-.5-2.04-.74-3.74-.74h-3.83c-.4,0-.71.31-.71.71v5.16c0,.4.31.71.71.71h3.73c1.74,0,3.01-.24,3.81-.71.81-.47,1.21-1.34,1.21-2.6s-.4-2.04-1.19-2.53h0ZM164.96,373.91c-.79-.5-2.03-.74-3.73-.74h-3.84c-.4,0-.71.31-.71.71v5.16c0,.4.31.71.71.71h3.74c1.73,0,3-.24,3.81-.71.8-.47,1.2-1.34,1.2-2.6s-.39-2.04-1.19-2.53h0ZM241.61,373.5c-.79-.47-2.07-.7-3.83-.7h-5.26c-.4,0-.71.31-.71.71v5.1c0,.4.31.71.71.71h5.16c1.8,0,3.1-.24,3.91-.71.8-.47,1.2-1.34,1.2-2.6s-.4-2.03-1.19-2.51ZM241.61,373.5c-.79-.47-2.07-.7-3.83-.7h-5.26c-.4,0-.71.31-.71.71v5.1c0,.4.31.71.71.71h5.16c1.8,0,3.1-.24,3.91-.71.8-.47,1.2-1.34,1.2-2.6s-.4-2.03-1.19-2.51ZM241.61,373.5c-.79-.47-2.07-.7-3.83-.7h-5.26c-.4,0-.71.31-.71.71v5.1c0,.4.31.71.71.71h5.16c1.8,0,3.1-.24,3.91-.71.8-.47,1.2-1.34,1.2-2.6s-.4-2.03-1.19-2.51Z"/>
    </g>
  </g>
</svg>