<?xml version="1.0" encoding="UTF-8"?>
<svg id="Apps" xmlns="http://www.w3.org/2000/svg" viewBox="0 0 720.78 720.5">
  <defs>
    <style>
      .cls-1 {
        fill: #a259ff;
      }

      .cls-1, .cls-2, .cls-3, .cls-4, .cls-5, .cls-6 {
        stroke-width: 0px;
      }

      .cls-1, .cls-2, .cls-3, .cls-5, .cls-6 {
        fill-rule: evenodd;
      }

      .cls-2 {
        fill: #1abcfe;
      }

      .cls-3 {
        fill: #0acf83;
      }

      .cls-4 {
        fill: #2e303a;
      }

      .cls-5 {
        fill: #f24e1e;
      }

      .cls-6 {
        fill: #ff7262;
      }
    </style>
  </defs>
  <g id="Figma">
    <g>
      <path class="cls-4" d="M360.5,276.25v84c0-46.39,37.61-84,84-84h-84ZM630.57.25H90.43C40.9.25.5,40.68.5,90.25v540c0,49.57,40.4,90,89.93,90l540.14-.28c49.53,0,89.93-40.43,89.93-90V90.25C720.5,40.68,680.1.25,630.57.25ZM528.5,360.25c0,46.39-37.61,84-84,84s-84-37.61-84-84v168c0,46.39-37.61,84-84,84s-84-37.61-84-84,37.61-84,84-84c-46.39,0-84-37.61-84-84s37.61-84,84-84c-46.39,0-84-37.61-84-84s37.61-84,84-84h168c46.39,0,84,37.61,84,84s-37.61,84-84,84c46.39,0,84,37.61,84,84ZM360.5,360.25c0-46.39,37.61-84,84-84h-84v84Z"/>
      <g>
        <path class="cls-2" d="M360.5,360.25c0-46.39,37.61-84,84-84s84,37.61,84,84-37.61,84-84,84-84-37.61-84-84Z"/>
        <path class="cls-3" d="M192.5,528.25c0-46.39,37.61-84,84-84h84v84c0,46.39-37.61,84-84,84s-84-37.61-84-84Z"/>
        <path class="cls-6" d="M360.5,108.25v168h84c46.39,0,84-37.61,84-84s-37.61-84-84-84h-84Z"/>
        <path class="cls-5" d="M192.5,192.25c0,46.39,37.61,84,84,84h84V108.25h-84c-46.39,0-84,37.61-84,84Z"/>
        <path class="cls-1" d="M192.5,360.25c0,46.39,37.61,84,84,84h84v-168h-84c-46.39,0-84,37.61-84,84Z"/>
      </g>
    </g>
  </g>
</svg>