<?xml version="1.0" encoding="UTF-8"?>
<svg id="Text_Mail" data-name="Text / Mail" xmlns="http://www.w3.org/2000/svg" viewBox="0 0 721.05 720.5">
  <defs>
    <style>
      .cls-1 {
        fill: #fff;
      }
    </style>
  </defs>
  <g>
    <path class="cls-1" d="M171.96,212.31c-.16-.74.3-.51.72-.73,2.09-1.11,4.55-1.68,6.84-2.27,119.53-1.07,239.21-.13,358.79-.47,4.06.34,7.76,1.24,11.45,2.93l-.46.83-158.48,118.83c-17.11,12.64-41.13,13.11-58.61.88l-160.25-120Z"/>
    <path class="cls-1" d="M420.15,373.13l142.72-106.77v223.27c0,9.79-11.56,21.35-21.34,21.97-120.39.68-240.94.68-361.33,0-10.05-.97-21.34-12.12-21.34-22.34v-223.27l147.08,110.06c34.96,22.51,80.51,21.4,114.21-2.92Z"/>
    <path class="cls-1" d="M630.57.25H90.43C40.9.25.5,40.68.5,90.25v540c0,49.57,40.4,90,89.93,90l540.14-.28c49.53,0,89.93-40.43,89.93-90V90.25C720.5,40.68,680.1.25,630.57.25ZM613.46,494.91c-.13,4.7-1.93,10.63-1.93,10.63-6.55,25.99-26.95,46.9-52.67,54.33l-13.46,2.73H176.33c-37.31-4.13-66.5-34.61-68.44-72.23V230.49c1.96-39.01,33.29-70.24,72.08-72.59h361.79l13.1,2c29.16,6.29,54.25,32.56,58.13,62.34.16,1.24.34,2.58.47,3.72,0,0,.12,264.25,0,268.95Z"/>
  </g>
  <path d="M541.75,157.9l13.11,2c29.16,6.29,54.25,32.56,58.13,62.34.16,1.24.34,2.58.46,3.72,0,0,.12,264.25,0,268.95s-1.92,10.63-1.92,10.63c-6.55,25.99-26.95,46.91-52.67,54.33l-13.47,2.73H176.33c-37.31-4.13-66.5-34.6-68.44-72.23V230.49c1.96-39.02,33.28-70.24,72.08-72.59h361.78ZM549.76,211.77c-3.69-1.69-7.39-2.59-11.45-2.93-119.59.34-239.26-.6-358.79.47-2.29.59-4.75,1.16-6.84,2.27-.42.22-.87,0-.71.73l160.25,120c17.47,12.23,41.5,11.76,58.61-.88l158.48-118.83.46-.83ZM562.86,266.35l-142.71,106.77c-33.7,24.32-79.25,25.44-114.21,2.92l-147.07-110.06v223.27c0,10.21,11.29,21.36,21.34,22.34,120.39.68,240.94.68,361.33,0,9.78-.62,21.34-12.18,21.34-21.97v-223.27Z"/>
</svg>