<?xml version="1.0" encoding="UTF-8"?>
<svg id="Text_Mail" data-name="Text / Mail" xmlns="http://www.w3.org/2000/svg" viewBox="0 0 721.05 720.5">
  <defs>
    <style>
      .cls-1 {
        fill: none;
        stroke: #000;
        stroke-linecap: round;
        stroke-linejoin: round;
        stroke-width: 66.67px;
      }
    </style>
  </defs>
  <path class="cls-1" d="M72.5,576.25l180-216M648.5,576.25l-180-216M36.5,216.25l260.1,173.4c23.09,15.4,34.64,23.1,47.12,26.09,11.03,2.65,22.53,2.65,33.56,0,12.48-2.99,24.03-10.69,47.12-26.09l260.1-173.4M151.7,612.25h417.6c40.32,0,60.49,0,75.89-7.85,13.55-6.9,24.56-17.92,31.46-31.46,7.85-15.4,7.85-35.56,7.85-75.89V223.45c0-40.32,0-60.49-7.85-75.89-6.9-13.55-17.92-24.56-31.46-31.47-15.4-7.85-35.56-7.85-75.89-7.85H151.7c-40.32,0-60.49,0-75.89,7.85-13.55,6.9-24.56,17.92-31.47,31.47-7.85,15.4-7.85,35.56-7.85,75.89v273.6c0,40.32,0,60.49,7.85,75.89,6.9,13.55,17.92,24.56,31.47,31.46,15.4,7.85,35.56,7.85,75.89,7.85Z"/>
</svg>